<?xml version="1.0" standalone="no"?>
<!DOCTYPE svg PUBLIC "-//W3C//DTD SVG 20010904//EN"
 "http://www.w3.org/TR/2001/REC-SVG-20010904/DTD/svg10.dtd">
<svg version="1.0" xmlns="http://www.w3.org/2000/svg"
 width="90.000000pt" height="90.000000pt" viewBox="0 0 90.000000 90.000000"
 preserveAspectRatio="xMidYMid meet">
<metadata>
Created by potrace 1.16, written by Peter Selinger 2001-2019
</metadata>
<g transform="translate(0.000000,90.000000) scale(0.100000,-0.100000)"
fill="#000000" stroke="none">
<path d="M217 733 c-4 -3 -7 -18 -7 -32 0 -14 -10 -46 -21 -71 l-21 -45 -18
49 c-21 54 -46 86 -68 86 -21 0 -72 -39 -72 -56 0 -19 28 -30 43 -15 15 15 37
14 37 -1 0 -7 18 -57 39 -110 l38 -97 -28 -27 c-44 -42 -72 -119 -66 -176 7
-59 12 -68 39 -68 19 0 20 4 15 46 -6 59 6 101 41 143 l29 35 33 -50 c44 -64
149 -174 167 -174 34 0 24 33 -24 83 -54 56 -103 119 -122 155 -10 19 -7 28
23 68 45 58 63 109 46 129 -20 24 -29 18 -49 -27 -10 -24 -30 -54 -44 -67
l-26 -24 -6 26 c-5 19 0 35 18 59 47 64 65 168 29 168 -10 0 -22 -3 -25 -7z"/>
<path d="M495 728 c-2 -7 -5 -114 -7 -238 -3 -210 -5 -228 -25 -270 -14 -27
-19 -48 -13 -54 16 -16 41 3 61 48 18 41 19 64 17 282 -2 179 -6 238 -15 242
-7 2 -15 -2 -18 -10z"/>
<path d="M593 703 c-7 -2 -13 -13 -13 -24 0 -16 7 -19 45 -19 l45 0 0 -40 c0
-30 -5 -42 -21 -50 -39 -22 -59 -86 -59 -195 0 -81 -4 -109 -20 -140 -11 -22
-18 -45 -15 -52 9 -26 35 -12 57 30 18 34 23 65 27 163 4 81 11 127 20 138 16
19 54 21 69 4 5 -7 12 -65 14 -128 3 -85 8 -124 21 -148 21 -38 73 -74 102
-70 32 5 23 31 -16 50 -47 22 -59 56 -59 167 0 105 -13 156 -45 177 -20 13
-25 25 -25 55 l0 39 44 0 c49 0 69 22 36 40 -19 10 -184 13 -207 3z"/>
</g>
  <desc>Hlai Block-Script / 方块黎文</desc>
  <!-- 
  *************************************************************************
  [ PROJECT: HLAI BLOCK-SCRIPT ][ LICENSE: CC0 1.0 Universal (Public Domain) ]
  
  * ENGLISH DECLARATION *
  This scalable vector graphic (SVG) is a core component of a custom 
  typography system designed specifically for the Hlai language (a Kra-Dai 
  endangered language native to Hainan, China). 
  
  It reconstructs the 1957 Latin-based Hlai orthography into a block-style 
  syllabary, fusing precision with the visual aesthetics of ancient Han 
  scripts (such as the Bird-Worm Seal Script and Qin Dynasty Small Seal Script).
  
  No rights reserved. Anyone is free to copy, modify, distribute, or 
  perform the work, even for commercial purposes. 
  
  May the ancient voices of the Eastern be remembered in the digital age.
  
  ~~~~~~~~~~~~~~~~~~~~~~~~~~~~~~~~~~~~~~~~~~~~~~~~~~~~~~~~~~~~~~~~~~~~~~~~~
  * 普通话（标准中文）宣言 *
  📜 方块黎文
  本矢量字符专为中国海南省濒危少数民族语言「黎语」量身定制。
  线条美学致敬中国先秦鸟虫篆与秦代小篆，结合方块音节逻辑重构。
  
  完全开源，放弃版权。愿古老的东方语言，在数字时代以最美的姿态被铭记。
  *************************************************************************
  -->
</svg>