<?xml version="1.0" standalone="no"?>
<!DOCTYPE svg PUBLIC "-//W3C//DTD SVG 20010904//EN"
 "http://www.w3.org/TR/2001/REC-SVG-20010904/DTD/svg10.dtd">
<svg version="1.0" xmlns="http://www.w3.org/2000/svg"
 width="90.000000pt" height="90.000000pt" viewBox="0 0 90.000000 90.000000"
 preserveAspectRatio="xMidYMid meet">
<metadata>
Created by potrace 1.16, written by Peter Selinger 2001-2019
</metadata>
<g transform="translate(0.000000,90.000000) scale(0.100000,-0.100000)"
fill="#000000" stroke="none">
<path d="M500 732 c0 -10 12 -29 26 -43 25 -23 32 -24 140 -22 l114 2 6 -26
c8 -31 -15 -53 -58 -53 -18 0 -33 -8 -44 -24 -13 -22 -14 -37 -5 -114 16 -129
36 -178 97 -239 55 -55 94 -69 94 -34 0 11 -15 28 -35 41 -48 30 -91 108 -105
191 -15 90 -11 133 15 137 56 8 67 14 80 45 16 39 10 80 -17 104 -17 15 -35
18 -128 15 -99 -3 -111 -1 -129 17 -26 26 -51 27 -51 3z"/>
<path d="M44 729 c-13 -22 13 -28 134 -31 116 -3 125 -4 143 -27 25 -31 24
-67 -4 -95 -19 -19 -37 -24 -111 -29 -147 -10 -186 -50 -186 -190 0 -152 48
-192 221 -185 79 3 102 7 120 23 30 27 49 76 49 125 0 33 -3 40 -19 40 -15 0
-20 -10 -26 -49 -4 -27 -12 -57 -19 -66 -30 -41 -211 -41 -252 0 -33 33 -41
123 -17 208 7 26 63 47 125 47 119 0 178 38 178 115 0 56 -20 97 -55 113 -34
16 -271 16 -281 1z"/>
<path d="M585 516 c-22 -33 -35 -83 -35 -133 0 -53 -13 -86 -51 -134 -30 -39
-31 -59 -3 -59 42 0 93 101 104 202 5 52 13 85 25 98 19 21 14 50 -9 50 -9 0
-23 -11 -31 -24z"/>
</g>
  <desc>Hlai Block-Script / 方块黎文</desc>
  <!-- 
  *************************************************************************
  [ PROJECT: HLAI BLOCK-SCRIPT ][ LICENSE: CC0 1.0 Universal (Public Domain) ]
  
  * ENGLISH DECLARATION *
  This scalable vector graphic (SVG) is a core component of a custom 
  typography system designed specifically for the Hlai language (a Kra-Dai 
  endangered language native to Hainan, China). 
  
  It reconstructs the 1957 Latin-based Hlai orthography into a block-style 
  syllabary, fusing precision with the visual aesthetics of ancient Han 
  scripts (such as the Bird-Worm Seal Script and Qin Dynasty Small Seal Script).
  
  No rights reserved. Anyone is free to copy, modify, distribute, or 
  perform the work, even for commercial purposes. 
  
  May the ancient voices of the Eastern be remembered in the digital age.
  
  ~~~~~~~~~~~~~~~~~~~~~~~~~~~~~~~~~~~~~~~~~~~~~~~~~~~~~~~~~~~~~~~~~~~~~~~~~
  * 普通话（标准中文）宣言 *
  📜 方块黎文
  本矢量字符专为中国海南省濒危少数民族语言「黎语」量身定制。
  线条美学致敬中国先秦鸟虫篆与秦代小篆，结合方块音节逻辑重构。
  
  完全开源，放弃版权。愿古老的东方语言，在数字时代以最美的姿态被铭记。
  *************************************************************************
  -->
</svg>