<?xml version="1.0" standalone="no"?>
<!DOCTYPE svg PUBLIC "-//W3C//DTD SVG 20010904//EN"
 "http://www.w3.org/TR/2001/REC-SVG-20010904/DTD/svg10.dtd">
<svg version="1.0" xmlns="http://www.w3.org/2000/svg"
 width="120.000000pt" height="120.000000pt" viewBox="0 0 120.000000 120.000000"
 preserveAspectRatio="xMidYMid meet">
<metadata>
Created by potrace 1.16, written by Peter Selinger 2001-2019
</metadata>
<g transform="translate(0.000000,120.000000) scale(0.100000,-0.100000)"
fill="#000000" stroke="none">
<path d="M383 1184 c-4 -10 -2 -19 5 -22 18 -6 4 -22 -19 -22 -57 0 -140 -77
-125 -116 9 -23 34 -16 48 14 16 34 71 62 121 62 61 0 49 -20 -55 -92 -87 -60
-111 -88 -126 -140 -8 -29 -7 -40 3 -48 19 -16 31 -6 39 31 14 72 116 130 124
71 3 -19 -17 -43 -91 -116 -75 -72 -97 -99 -102 -128 -8 -44 -4 -70 12 -75 13
-5 27 22 37 69 4 15 27 48 53 72 l47 45 28 -59 c34 -70 94 -114 150 -108 48 4
42 29 -11 45 -66 19 -96 51 -112 122 -6 27 -3 41 12 62 22 32 26 102 5 121
-11 11 -6 19 28 49 36 32 41 41 40 79 -2 48 -31 84 -76 95 -21 6 -29 3 -35
-11z"/>
<path d="M665 1178 c-2 -7 -5 -114 -7 -238 -3 -218 -4 -226 -27 -268 -20 -33
-22 -45 -13 -54 18 -18 43 0 67 48 17 34 20 63 23 217 4 194 6 199 60 149 30
-29 52 -84 52 -135 0 -87 95 -113 135 -38 11 23 15 64 15 181 l0 150 -25 0
-25 0 0 -147 c0 -82 -4 -154 -9 -162 -17 -27 -38 -4 -44 47 -3 28 -15 69 -26
91 -22 42 -83 91 -113 91 -14 0 -18 8 -18 40 0 34 -3 40 -20 40 -11 0 -23 -6
-25 -12z"/>
<path d="M825 770 c-19 -31 98 -164 138 -158 36 5 32 33 -8 57 -19 11 -48 41
-63 66 -26 42 -54 57 -67 35z"/>
<path d="M415 578 c-2 -7 -5 -114 -7 -238 -3 -210 -5 -228 -25 -270 -14 -27
-19 -48 -13 -54 16 -16 41 3 61 48 18 41 19 64 17 282 -2 179 -6 238 -15 242
-7 2 -15 -2 -18 -10z"/>
<path d="M513 553 c-7 -2 -13 -13 -13 -24 0 -16 7 -19 45 -19 l45 0 0 -40 c0
-30 -5 -42 -21 -50 -39 -22 -59 -86 -59 -195 0 -81 -4 -109 -20 -140 -11 -22
-18 -45 -15 -52 9 -26 35 -12 57 30 18 34 23 65 27 163 4 81 11 127 20 138 16
19 54 21 69 4 5 -7 12 -65 14 -128 3 -85 8 -124 21 -148 21 -38 73 -74 102
-70 32 5 23 31 -16 50 -47 22 -59 56 -59 167 0 105 -13 156 -45 177 -20 13
-25 25 -25 55 l0 39 44 0 c49 0 69 22 36 40 -19 10 -184 13 -207 3z"/>
</g>
  <desc>Hlai Block-Script / 方块黎文</desc>
  <!-- 
  *************************************************************************
  [ PROJECT: HLAI BLOCK-SCRIPT ][ LICENSE: CC0 1.0 Universal (Public Domain) ]
  
  * ENGLISH DECLARATION *
  This scalable vector graphic (SVG) is a core component of a custom 
  typography system designed specifically for the Hlai language (a Kra-Dai 
  endangered language native to Hainan, China). 
  
  It reconstructs the 1957 Latin-based Hlai orthography into a block-style 
  syllabary, fusing precision with the visual aesthetics of ancient Han 
  scripts (such as the Bird-Worm Seal Script and Qin Dynasty Small Seal Script).
  
  No rights reserved. Anyone is free to copy, modify, distribute, or 
  perform the work, even for commercial purposes. 
  
  May the ancient voices of the Eastern be remembered in the digital age.
  
  ~~~~~~~~~~~~~~~~~~~~~~~~~~~~~~~~~~~~~~~~~~~~~~~~~~~~~~~~~~~~~~~~~~~~~~~~~
  * 普通话（标准中文）宣言 *
  📜 方块黎文
  本矢量字符专为中国海南省濒危少数民族语言「黎语」量身定制。
  线条美学致敬中国先秦鸟虫篆与秦代小篆，结合方块音节逻辑重构。
  
  完全开源，放弃版权。愿古老的东方语言，在数字时代以最美的姿态被铭记。
  *************************************************************************
  -->
</svg>