<?xml version="1.0" standalone="no"?>
<!DOCTYPE svg PUBLIC "-//W3C//DTD SVG 20010904//EN"
 "http://www.w3.org/TR/2001/REC-SVG-20010904/DTD/svg10.dtd">
<svg version="1.0" xmlns="http://www.w3.org/2000/svg"
 width="90.000000pt" height="90.000000pt" viewBox="0 0 90.000000 90.000000"
 preserveAspectRatio="xMidYMid meet">
<metadata>
Created by potrace 1.16, written by Peter Selinger 2001-2019
</metadata>
<g transform="translate(0.000000,90.000000) scale(0.100000,-0.100000)"
fill="#000000" stroke="none">
<path d="M184 736 c-3 -8 -1 -23 5 -35 18 -32 13 -76 -12 -112 -13 -19 -42
-62 -66 -96 -53 -77 -81 -156 -81 -225 0 -76 8 -100 33 -96 19 3 21 10 21 88
1 72 6 93 29 138 15 28 31 52 35 52 4 0 14 -16 21 -35 21 -60 90 -153 139
-188 65 -47 130 -71 148 -56 23 19 16 28 -48 57 -95 44 -171 133 -207 244 -11
33 -10 41 18 91 33 57 39 102 20 156 -12 33 -45 43 -55 17z"/>
<path d="M557 744 c-4 -4 -7 -43 -7 -86 0 -80 12 -121 44 -147 12 -10 16 -34
16 -102 0 -98 -9 -131 -48 -172 -23 -24 -24 -29 -11 -42 14 -14 18 -14 41 4
40 32 60 85 67 183 l6 90 48 -42 c58 -52 82 -96 98 -185 19 -101 64 -105 48
-3 -20 127 -66 200 -162 258 -75 46 -97 69 -97 102 l0 28 105 0 c98 0 105 1
105 20 0 19 -7 20 -104 20 l-105 0 -3 37 c-3 36 -23 54 -41 37z"/>
</g>
  <desc>Hlai Block-Script / 方块黎文</desc>
  <!-- 
  *************************************************************************
  [ PROJECT: HLAI BLOCK-SCRIPT ][ LICENSE: CC0 1.0 Universal (Public Domain) ]
  
  * ENGLISH DECLARATION *
  This scalable vector graphic (SVG) is a core component of a custom 
  typography system designed specifically for the Hlai language (a Kra-Dai 
  endangered language native to Hainan, China). 
  
  It reconstructs the 1957 Latin-based Hlai orthography into a block-style 
  syllabary, fusing precision with the visual aesthetics of ancient Han 
  scripts (such as the Bird-Worm Seal Script and Qin Dynasty Small Seal Script).
  
  No rights reserved. Anyone is free to copy, modify, distribute, or 
  perform the work, even for commercial purposes. 
  
  May the ancient voices of the Eastern be remembered in the digital age.
  
  ~~~~~~~~~~~~~~~~~~~~~~~~~~~~~~~~~~~~~~~~~~~~~~~~~~~~~~~~~~~~~~~~~~~~~~~~~
  * 普通话（标准中文）宣言 *
  📜 方块黎文
  本矢量字符专为中国海南省濒危少数民族语言「黎语」量身定制。
  线条美学致敬中国先秦鸟虫篆与秦代小篆，结合方块音节逻辑重构。
  
  完全开源，放弃版权。愿古老的东方语言，在数字时代以最美的姿态被铭记。
  *************************************************************************
  -->
</svg>