<?xml version="1.0" standalone="no"?>
<!DOCTYPE svg PUBLIC "-//W3C//DTD SVG 20010904//EN"
 "http://www.w3.org/TR/2001/REC-SVG-20010904/DTD/svg10.dtd">
<svg version="1.0" xmlns="http://www.w3.org/2000/svg"
 width="90.000000pt" height="90.000000pt" viewBox="0 0 90.000000 90.000000"
 preserveAspectRatio="xMidYMid meet">
<metadata>
Created by potrace 1.16, written by Peter Selinger 2001-2019
</metadata>
<g transform="translate(0.000000,90.000000) scale(0.100000,-0.100000)"
fill="#000000" stroke="none">
<path d="M657 744 c-4 -4 -7 -106 -7 -226 0 -120 -4 -218 -8 -218 -23 0 -45
68 -54 173 -9 113 -16 135 -38 122 -9 -6 -11 -37 -8 -114 5 -122 27 -185 77
-222 17 -12 31 -31 31 -41 0 -16 -9 -18 -80 -18 -65 0 -82 -3 -87 -16 -3 -9 0
-20 8 -25 18 -11 350 -11 368 0 8 5 11 16 8 25 -5 13 -22 16 -87 16 l-80 0 1
48 c0 44 3 49 42 77 25 18 52 50 67 80 22 44 25 63 25 160 0 103 -1 110 -20
110 -18 0 -20 -7 -21 -90 -1 -115 -15 -162 -59 -205 l-35 -34 -2 200 c-3 170
-5 199 -18 202 -9 1 -19 0 -23 -4z"/>
<path d="M118 711 c-31 -25 -68 -116 -68 -169 0 -44 30 -98 60 -107 20 -6 22
-11 15 -63 -9 -72 -26 -112 -64 -152 -29 -31 -32 -60 -6 -60 23 0 85 82 100
134 8 27 15 67 15 89 l0 40 40 -6 c76 -10 117 -56 160 -177 28 -78 35 -87 54
-71 11 9 12 20 4 49 -43 155 -135 251 -243 252 -56 0 -85 23 -85 64 l0 34 64
-5 c137 -11 196 15 196 85 0 61 -25 76 -129 80 -75 3 -89 1 -113 -17z m189
-43 c19 -15 16 -36 -6 -48 -11 -5 -56 -10 -100 -10 -72 0 -81 2 -81 18 0 22
26 48 55 55 28 8 117 -2 132 -15z"/>
</g>
  <desc>Hlai Block-Script / 方块黎文</desc>
  <!-- 
  *************************************************************************
  [ PROJECT: HLAI BLOCK-SCRIPT ][ LICENSE: CC0 1.0 Universal (Public Domain) ]
  
  * ENGLISH DECLARATION *
  This scalable vector graphic (SVG) is a core component of a custom 
  typography system designed specifically for the Hlai language (a Kra-Dai 
  endangered language native to Hainan, China). 
  
  It reconstructs the 1957 Latin-based Hlai orthography into a block-style 
  syllabary, fusing precision with the visual aesthetics of ancient Han 
  scripts (such as the Bird-Worm Seal Script and Qin Dynasty Small Seal Script).
  
  No rights reserved. Anyone is free to copy, modify, distribute, or 
  perform the work, even for commercial purposes. 
  
  May the ancient voices of the Eastern be remembered in the digital age.
  
  ~~~~~~~~~~~~~~~~~~~~~~~~~~~~~~~~~~~~~~~~~~~~~~~~~~~~~~~~~~~~~~~~~~~~~~~~~
  * 普通话（标准中文）宣言 *
  📜 方块黎文
  本矢量字符专为中国海南省濒危少数民族语言「黎语」量身定制。
  线条美学致敬中国先秦鸟虫篆与秦代小篆，结合方块音节逻辑重构。
  
  完全开源，放弃版权。愿古老的东方语言，在数字时代以最美的姿态被铭记。
  *************************************************************************
  -->
</svg>