<?xml version="1.0" standalone="no"?>
<!DOCTYPE svg PUBLIC "-//W3C//DTD SVG 20010904//EN"
 "http://www.w3.org/TR/2001/REC-SVG-20010904/DTD/svg10.dtd">
<svg version="1.0" xmlns="http://www.w3.org/2000/svg"
 width="90.000000pt" height="90.000000pt" viewBox="0 0 90.000000 90.000000"
 preserveAspectRatio="xMidYMid meet">
<metadata>
Created by potrace 1.16, written by Peter Selinger 2001-2019
</metadata>
<g transform="translate(0.000000,90.000000) scale(0.100000,-0.100000)"
fill="#000000" stroke="none">
<path d="M90 731 c-17 -33 -12 -69 13 -83 12 -6 58 -15 102 -18 75 -5 80 -7
83 -29 5 -32 -12 -41 -78 -41 -73 0 -100 -19 -100 -69 0 -48 24 -71 74 -71 63
0 103 -23 117 -68 14 -49 -1 -105 -37 -128 -28 -19 -83 -21 -113 -5 -22 12
-51 60 -51 86 0 19 -28 31 -40 19 -16 -16 9 -83 44 -121 28 -31 40 -37 87 -40
101 -8 159 50 159 158 0 87 -38 126 -138 140 -61 9 -67 12 -59 34 5 11 21 15
57 15 75 0 117 21 125 62 7 36 -6 81 -27 94 -7 5 -51 11 -98 14 l-85 5 3 33
c4 37 -20 45 -38 13z"/>
<path d="M593 742 c-5 -4 -22 -30 -36 -58 -14 -28 -38 -65 -52 -83 -27 -32
-28 -61 -1 -61 8 0 31 23 51 50 35 48 39 50 85 50 78 0 80 -36 5 -84 -25 -16
-57 -45 -71 -65 -37 -54 -65 -157 -67 -247 -2 -73 0 -79 18 -79 18 0 21 9 27
84 12 148 44 217 126 273 59 40 62 44 62 96 0 40 -3 44 -35 58 -19 7 -46 14
-61 14 -21 0 -25 4 -21 20 6 22 -13 42 -30 32z"/>
<path d="M659 474 c-17 -20 11 -161 42 -210 25 -41 93 -94 121 -94 29 0 22 37
-9 54 -63 32 -99 97 -110 196 -6 61 -22 80 -44 54z"/>
</g>
  <desc>Hlai Block-Script / 方块黎文</desc>
  <!-- 
  *************************************************************************
  [ PROJECT: HLAI BLOCK-SCRIPT ][ LICENSE: CC0 1.0 Universal (Public Domain) ]
  
  * ENGLISH DECLARATION *
  This scalable vector graphic (SVG) is a core component of a custom 
  typography system designed specifically for the Hlai language (a Kra-Dai 
  endangered language native to Hainan, China). 
  
  It reconstructs the 1957 Latin-based Hlai orthography into a block-style 
  syllabary, fusing precision with the visual aesthetics of ancient Han 
  scripts (such as the Bird-Worm Seal Script and Qin Dynasty Small Seal Script).
  
  No rights reserved. Anyone is free to copy, modify, distribute, or 
  perform the work, even for commercial purposes. 
  
  May the ancient voices of the Eastern be remembered in the digital age.
  
  ~~~~~~~~~~~~~~~~~~~~~~~~~~~~~~~~~~~~~~~~~~~~~~~~~~~~~~~~~~~~~~~~~~~~~~~~~
  * 普通话（标准中文）宣言 *
  📜 方块黎文
  本矢量字符专为中国海南省濒危少数民族语言「黎语」量身定制。
  线条美学致敬中国先秦鸟虫篆与秦代小篆，结合方块音节逻辑重构。
  
  完全开源，放弃版权。愿古老的东方语言，在数字时代以最美的姿态被铭记。
  *************************************************************************
  -->
</svg>